<svg width="681" height="156" viewBox="0 0 681 156" fill="none" xmlns="http://www.w3.org/2000/svg">
<g clip-path="url(#clip0_243_7615)">
<path d="M8.662 139V52.624H34.282L56.242 92.396L78.202 52.624H102.846V139H82.96V79.952L59.902 120.822H51.972L28.426 79.952V139H8.662ZM153.24 139.976C147.058 139.976 141.324 139 136.038 137.048C130.751 135.015 126.359 131.883 122.862 127.654C119.446 123.343 117.331 117.853 116.518 111.184H136.526C137.176 113.705 138.356 115.739 140.064 117.284C141.853 118.829 144.008 119.968 146.53 120.7C149.051 121.351 151.735 121.676 154.582 121.676C156.534 121.676 158.486 121.473 160.438 121.066C162.39 120.578 164.016 119.765 165.318 118.626C166.619 117.487 167.27 115.901 167.27 113.868C167.27 112.323 166.904 111.103 166.172 110.208C165.44 109.232 164.382 108.459 163 107.89C161.698 107.239 160.072 106.67 158.12 106.182C156.9 105.857 155.639 105.572 154.338 105.328C153.036 105.084 151.776 104.799 150.556 104.474C149.336 104.149 148.116 103.783 146.896 103.376C143.236 102.481 139.738 101.465 136.404 100.326C133.069 99.106 130.1 97.5607 127.498 95.69C124.976 93.8193 122.984 91.3793 121.52 88.37C120.056 85.3607 119.324 81.6193 119.324 77.146C119.324 72.8353 120.056 69.1753 121.52 66.166C123.065 63.0753 125.098 60.5947 127.62 58.724C130.222 56.772 133.028 55.308 136.038 54.332C139.128 53.2747 142.178 52.5427 145.188 52.136C148.278 51.7293 151.125 51.526 153.728 51.526C159.502 51.526 164.626 52.5833 169.1 54.698C173.654 56.8127 177.314 59.944 180.08 64.092C182.926 68.1587 184.634 73.2013 185.204 79.22H166.05C165.724 77.1053 164.87 75.3567 163.488 73.974C162.186 72.5913 160.478 71.534 158.364 70.802C156.33 70.07 153.972 69.704 151.288 69.704C149.661 69.704 148.075 69.8667 146.53 70.192C145.066 70.436 143.764 70.8427 142.626 71.412C141.568 71.9813 140.674 72.754 139.942 73.73C139.291 74.6247 138.966 75.7633 138.966 77.146C138.966 78.61 139.454 79.8707 140.43 80.928C141.406 81.904 142.788 82.758 144.578 83.49C146.448 84.222 148.726 84.954 151.41 85.686C153.28 86.3367 155.192 86.8653 157.144 87.272C159.177 87.5973 161.129 88.0447 163 88.614C166.416 89.4273 169.547 90.4033 172.394 91.542C175.322 92.5993 177.884 93.982 180.08 95.69C182.276 97.3167 183.984 99.5127 185.204 102.278C186.505 104.962 187.156 108.378 187.156 112.526C187.156 117.569 186.22 121.839 184.35 125.336C182.479 128.752 179.917 131.558 176.664 133.754C173.41 135.95 169.75 137.536 165.684 138.512C161.698 139.488 157.55 139.976 153.24 139.976ZM200.955 139V52.624H220.719V120.822H263.297V139H200.955Z" fill="#1F5866"/>
<path d="M343.834 139.976C334.969 139.976 327.567 138.105 321.63 134.364C315.774 130.541 311.382 125.336 308.454 118.748C305.607 112.079 304.184 104.474 304.184 95.934C304.184 87.4753 305.648 79.952 308.576 73.364C311.504 66.6947 315.896 61.4487 321.752 57.626C327.689 53.722 335.131 51.77 344.078 51.77C350.422 51.77 355.871 52.7867 360.426 54.82C365.062 56.772 368.803 59.4967 371.65 62.994C374.497 66.4913 376.449 70.5987 377.506 75.316H366.77C365.55 71.0867 362.907 67.7113 358.84 65.19C354.855 62.6687 349.812 61.408 343.712 61.408C336.88 61.408 331.349 63.0347 327.12 66.288C322.972 69.46 319.922 73.6487 317.97 78.854C316.018 83.978 315.042 89.5493 315.042 95.568C315.042 101.912 316.059 107.727 318.092 113.014C320.125 118.301 323.297 122.53 327.608 125.702C331.919 128.793 337.409 130.338 344.078 130.338C348.145 130.338 351.764 129.769 354.936 128.63C358.189 127.491 360.873 125.865 362.988 123.75C365.184 121.635 366.689 119.195 367.502 116.43H379.092C377.872 121.147 375.676 125.295 372.504 128.874C369.413 132.371 365.469 135.096 360.67 137.048C355.871 139 350.259 139.976 343.834 139.976ZM392.403 139V52.746H402.773V139H392.403ZM446.906 139.732C440.074 139.732 434.421 138.349 429.948 135.584C425.475 132.737 422.14 128.833 419.944 123.872C417.748 118.911 416.65 113.258 416.65 106.914C416.65 100.489 417.789 94.836 420.066 89.956C422.425 84.9947 425.841 81.0907 430.314 78.244C434.787 75.3973 440.277 73.974 446.784 73.974C451.827 73.974 456.137 74.95 459.716 76.902C463.376 78.7727 466.385 81.294 468.744 84.466C471.103 87.638 472.811 91.1353 473.868 94.958C474.925 98.6993 475.373 102.481 475.21 106.304C475.129 107.036 475.047 107.768 474.966 108.5C474.966 109.232 474.925 109.964 474.844 110.696H427.142C427.467 114.437 428.403 117.813 429.948 120.822C431.493 123.831 433.689 126.231 436.536 128.02C439.383 129.728 442.921 130.582 447.15 130.582C449.265 130.582 451.379 130.338 453.494 129.85C455.69 129.281 457.642 128.345 459.35 127.044C461.139 125.743 462.4 123.994 463.132 121.798H473.746C472.77 125.946 470.94 129.362 468.256 132.046C465.572 134.649 462.359 136.601 458.618 137.902C454.877 139.122 450.973 139.732 446.906 139.732ZM427.386 101.668H464.596C464.515 98.008 463.701 94.7953 462.156 92.03C460.611 89.2647 458.496 87.1093 455.812 85.564C453.209 84.0187 450.078 83.246 446.418 83.246C442.433 83.246 439.057 84.1 436.292 85.808C433.608 87.516 431.534 89.7527 430.07 92.518C428.606 95.2833 427.711 98.3333 427.386 101.668ZM509.644 139.732C506.716 139.732 503.869 139.366 501.104 138.634C498.42 137.821 495.98 136.641 493.784 135.096C491.669 133.469 489.961 131.477 488.66 129.118C487.44 126.678 486.83 123.872 486.83 120.7C486.83 117.04 487.48 113.949 488.782 111.428C490.164 108.907 491.994 106.914 494.272 105.45C496.549 103.986 499.192 102.929 502.202 102.278C505.211 101.627 508.342 101.302 511.596 101.302H530.506C530.506 97.642 529.977 94.47 528.92 91.786C527.944 89.102 526.317 87.028 524.04 85.564C521.762 84.0187 518.753 83.246 515.012 83.246C512.734 83.246 510.62 83.49 508.668 83.978C506.716 84.466 505.048 85.2387 503.666 86.296C502.283 87.3533 501.266 88.7767 500.616 90.566H489.514C490.083 87.638 491.181 85.1573 492.808 83.124C494.516 81.0093 496.549 79.3013 498.908 78C501.348 76.6173 503.95 75.6007 506.716 74.95C509.481 74.2993 512.246 73.974 515.012 73.974C524.284 73.974 530.872 76.6987 534.776 82.148C538.68 87.5973 540.632 94.958 540.632 104.23V139H531.97L531.36 130.826C529.57 133.266 527.415 135.137 524.894 136.438C522.372 137.739 519.77 138.593 517.086 139C514.483 139.488 512.002 139.732 509.644 139.732ZM510.62 130.582C514.686 130.582 518.184 129.931 521.112 128.63C524.121 127.247 526.439 125.255 528.066 122.652C529.692 120.049 530.506 116.877 530.506 113.136V109.964H519.16C516.476 109.964 513.832 110.005 511.23 110.086C508.627 110.167 506.268 110.493 504.154 111.062C502.039 111.631 500.331 112.607 499.03 113.99C497.81 115.373 497.2 117.365 497.2 119.968C497.2 122.408 497.81 124.401 499.03 125.946C500.331 127.491 501.998 128.671 504.032 129.484C506.146 130.216 508.342 130.582 510.62 130.582ZM556.697 139V74.706H566.701L567.189 84.466C568.653 82.1073 570.524 80.1553 572.801 78.61C575.079 77.0647 577.559 75.926 580.243 75.194C583.009 74.3807 585.693 73.974 588.295 73.974C594.558 73.974 599.438 75.2753 602.935 77.878C606.514 80.4807 609.035 84.0187 610.499 88.492C612.045 92.884 612.817 97.886 612.817 103.498V139H602.447V106.304C602.447 103.295 602.244 100.407 601.837 97.642C601.512 94.8767 600.78 92.396 599.641 90.2C598.584 88.004 597.039 86.296 595.005 85.076C592.972 83.7747 590.247 83.124 586.831 83.124C582.602 83.124 578.983 84.3033 575.973 86.662C573.045 89.0207 570.809 92.1927 569.263 96.178C567.799 100.163 567.067 104.637 567.067 109.598V139H556.697Z" fill="#5BBCC7"/>
<path d="M638 0C638 23.7482 657.252 43 681 43C657.252 43 638 62.2518 638 86C638 62.2518 618.748 43 595 43C618.748 43 638 23.7482 638 0Z" fill="#5BBCC7"/>
</g>
<defs>
<clipPath id="clip0_243_7615">
<rect width="681" height="156" fill="white"/>
</clipPath>
</defs>
</svg>